<svg xmlns="http://www.w3.org/2000/svg" xmlns:xlink="http://www.w3.org/1999/xlink" width="2000" zoomAndPan="magnify" viewBox="0 0 1500 1499.999933" height="2000" preserveAspectRatio="xMidYMid meet" version="1.0"><defs><clipPath id="c318b85897"><path d="M 168.726562 273.796875 L 1106.226562 273.796875 L 1106.226562 1226.296875 L 168.726562 1226.296875 Z M 168.726562 273.796875 " clip-rule="nonzero"/></clipPath><clipPath id="4623674b16"><path d="M 862.097656 865.914062 L 1350 865.914062 L 1350 1350 L 862.097656 1350 Z M 862.097656 865.914062 " clip-rule="nonzero"/></clipPath><clipPath id="4eaf7b0201"><path d="M 1106.050781 865.914062 C 971.320312 865.914062 862.097656 974.28125 862.097656 1107.957031 C 862.097656 1241.632812 971.320312 1350 1106.050781 1350 C 1240.78125 1350 1350 1241.632812 1350 1107.957031 C 1350 974.28125 1240.78125 865.914062 1106.050781 865.914062 Z M 1106.050781 865.914062 " clip-rule="nonzero"/></clipPath><clipPath id="590a7177f9"><path d="M 0.0976562 0.914062 L 488 0.914062 L 488 485 L 0.0976562 485 Z M 0.0976562 0.914062 " clip-rule="nonzero"/></clipPath><clipPath id="2ac13f73e7"><path d="M 244.050781 0.914062 C 109.320312 0.914062 0.0976562 109.28125 0.0976562 242.957031 C 0.0976562 376.632812 109.320312 485 244.050781 485 C 378.78125 485 488 376.632812 488 242.957031 C 488 109.28125 378.78125 0.914062 244.050781 0.914062 Z M 244.050781 0.914062 " clip-rule="nonzero"/></clipPath><clipPath id="bd6ba4713e"><rect x="0" width="488" y="0" height="485"/></clipPath><clipPath id="4e4ec4e536"><path d="M 862.101562 865.914062 L 1350 865.914062 L 1350 1349.664062 L 862.101562 1349.664062 Z M 862.101562 865.914062 " clip-rule="nonzero"/></clipPath><clipPath id="d19b133e49"><path d="M 1106.046875 865.914062 C 971.320312 865.914062 862.101562 974.277344 862.101562 1107.953125 C 862.101562 1241.628906 971.320312 1349.992188 1106.046875 1349.992188 C 1240.777344 1349.992188 1349.996094 1241.628906 1349.996094 1107.953125 C 1349.996094 974.277344 1240.777344 865.914062 1106.046875 865.914062 Z M 1106.046875 865.914062 " clip-rule="nonzero"/></clipPath><clipPath id="39e24b8060"><path d="M 981 1169 L 1029 1169 L 1029 1271.480469 L 981 1271.480469 Z M 981 1169 " clip-rule="nonzero"/></clipPath><clipPath id="44c00317dc"><path d="M 1184 1169 L 1231 1169 L 1231 1271.480469 L 1184 1271.480469 Z M 1184 1169 " clip-rule="nonzero"/></clipPath><clipPath id="43674fc990"><path d="M 1039 1128 L 1173 1128 L 1173 1271.480469 L 1039 1271.480469 Z M 1039 1128 " clip-rule="nonzero"/></clipPath><clipPath id="c888ed8a7d"><path d="M 1042 944.480469 L 1171 944.480469 L 1171 1004 L 1042 1004 Z M 1042 944.480469 " clip-rule="nonzero"/></clipPath></defs><g clip-path="url(#c318b85897)"><path fill="#000000" d="M 460.976562 557.082031 C 460.976562 549.527344 467.109375 543.394531 474.664062 543.394531 C 482.222656 543.394531 488.355469 549.527344 488.355469 557.082031 L 488.355469 588.0625 C 488.355469 595.617188 482.222656 601.75 474.664062 601.75 C 467.109375 601.75 460.976562 595.617188 460.976562 588.0625 Z M 522.339844 557.082031 C 522.339844 549.527344 528.472656 543.394531 536.027344 543.394531 C 543.585938 543.394531 549.71875 549.527344 549.71875 557.082031 L 549.71875 588.0625 C 549.71875 595.617188 543.585938 601.75 536.027344 601.75 C 528.472656 601.75 522.339844 595.617188 522.339844 588.0625 Z M 522.339844 711.570312 C 522.339844 704.015625 528.472656 697.882812 536.027344 697.882812 C 543.585938 697.882812 549.71875 704.015625 549.71875 711.570312 L 549.71875 742.554688 C 549.71875 750.105469 543.585938 756.242188 536.027344 756.242188 C 528.472656 756.242188 522.339844 750.105469 522.339844 742.554688 Z M 522.339844 634.328125 C 522.339844 626.769531 528.472656 620.640625 536.027344 620.640625 C 543.585938 620.640625 549.71875 626.769531 549.71875 634.328125 L 549.71875 665.308594 C 549.71875 672.863281 543.585938 678.996094 536.027344 678.996094 C 528.472656 678.996094 522.339844 672.863281 522.339844 665.308594 Z M 399.613281 557.082031 C 399.613281 549.527344 405.746094 543.394531 413.300781 543.394531 C 420.859375 543.394531 426.992188 549.527344 426.992188 557.082031 L 426.992188 588.0625 C 426.992188 595.617188 420.859375 601.75 413.300781 601.75 C 405.746094 601.75 399.613281 595.617188 399.613281 588.0625 Z M 399.613281 711.570312 C 399.613281 704.015625 405.746094 697.882812 413.300781 697.882812 C 420.859375 697.882812 426.992188 704.015625 426.992188 711.570312 L 426.992188 742.554688 C 426.992188 750.105469 420.859375 756.242188 413.300781 756.242188 C 405.746094 756.242188 399.613281 750.105469 399.613281 742.554688 Z M 399.613281 634.328125 C 399.613281 626.769531 405.746094 620.640625 413.300781 620.640625 C 420.859375 620.640625 426.992188 626.769531 426.992188 634.328125 L 426.992188 665.308594 C 426.992188 672.863281 420.859375 678.996094 413.300781 678.996094 C 405.746094 678.996094 399.613281 672.863281 399.613281 665.308594 Z M 460.976562 711.570312 C 460.976562 704.015625 467.109375 697.882812 474.664062 697.882812 C 482.222656 697.882812 488.355469 704.015625 488.355469 711.570312 L 488.355469 742.554688 C 488.355469 750.105469 482.222656 756.242188 474.664062 756.242188 C 467.109375 756.242188 460.976562 750.105469 460.976562 742.554688 Z M 460.976562 634.328125 C 460.976562 626.769531 467.109375 620.640625 474.664062 620.640625 C 482.222656 620.640625 488.355469 626.769531 488.355469 634.328125 L 488.355469 665.308594 C 488.355469 672.863281 482.222656 678.996094 474.664062 678.996094 C 467.109375 678.996094 460.976562 672.863281 460.976562 665.308594 Z M 331.433594 808.941406 L 203.449219 808.941406 L 203.449219 758.976562 L 331.433594 758.976562 Z M 921.011719 1191.808594 L 978.5 1191.808594 L 978.5 1197.558594 C 978.5 1213.363281 965.5625 1226.296875 949.753906 1226.296875 C 933.949219 1226.296875 921.011719 1213.363281 921.011719 1197.558594 Z M 293.597656 1191.808594 L 351.085938 1191.808594 L 351.085938 1197.558594 C 351.085938 1213.363281 338.15625 1226.296875 322.34375 1226.296875 C 306.535156 1226.296875 293.597656 1213.363281 293.597656 1197.558594 Z M 899.699219 626.394531 L 926.003906 600.089844 L 1022.339844 696.417969 L 996.035156 722.722656 C 960.644531 687.332031 930.160156 656.851562 899.699219 626.394531 Z M 690.933594 753.96875 L 660.230469 784.667969 C 647.675781 797.222656 627.128906 797.226562 614.570312 784.667969 C 602.011719 772.113281 602.011719 751.5625 614.570312 739.007812 L 679.132812 674.449219 L 705.4375 700.75 L 692.257812 713.929688 C 684.199219 721.988281 681.976562 734.203125 686.683594 744.585938 Z M 813.445312 540.148438 L 900.636719 452.960938 C 914.609375 438.992188 937.402344 438.992188 951.375 452.960938 L 1083.226562 584.804688 C 1097.199219 598.777344 1097.199219 621.566406 1083.226562 635.539062 L 1062.929688 655.832031 L 941.226562 534.140625 C 932.820312 525.734375 919.191406 525.734375 910.785156 534.140625 L 859.113281 585.808594 Z M 741.53125 606.804688 L 718.695312 629.632812 C 713.351562 634.976562 713.351562 643.648438 718.695312 648.992188 C 724.039062 654.332031 732.714844 654.332031 738.054688 648.992188 L 760.886719 626.160156 L 775.109375 640.378906 L 752.277344 663.210938 C 746.933594 668.554688 746.933594 677.226562 752.277344 682.566406 C 757.621094 687.910156 766.296875 687.910156 771.636719 682.566406 L 794.46875 659.738281 L 818.367188 683.632812 L 772.703125 729.296875 L 671.964844 628.566406 L 717.628906 582.90625 Z M 460.976562 358.847656 L 460.976562 326.726562 C 460.976562 319.699219 458.453125 313.65625 453.464844 308.714844 C 448.472656 303.769531 442.402344 301.304688 435.375 301.371094 L 307.898438 302.585938 C 294.015625 302.71875 282.78125 314.058594 282.78125 327.9375 L 282.78125 731.601562 L 255.402344 731.601562 L 255.402344 327.9375 C 255.402344 299.070312 278.769531 275.488281 307.636719 275.210938 L 435.117188 273.996094 C 449.726562 273.859375 462.351562 278.984375 472.730469 289.261719 C 483.113281 299.542969 488.355469 312.117188 488.355469 326.726562 L 488.355469 358.847656 Z M 474.664062 425.070312 C 521.449219 425.070312 559.371094 462.992188 559.371094 509.769531 L 389.960938 509.769531 C 389.960938 462.992188 427.882812 425.070312 474.664062 425.070312 Z M 445.464844 401.539062 L 445.464844 386.226562 L 503.863281 386.226562 L 503.863281 401.535156 C 494.554688 399.03125 484.765625 397.695312 474.664062 397.695312 C 464.5625 397.695312 454.777344 399.035156 445.464844 401.539062 Z M 835.972656 921.488281 L 1071.503906 921.488281 L 1071.503906 1069.71875 C 1071.503906 1121.886719 1033.058594 1164.433594 985.929688 1164.433594 L 289.023438 1164.433594 C 241.890625 1164.433594 203.449219 1121.886719 203.449219 1069.71875 L 203.449219 921.488281 L 594.59375 921.488281 L 561.183594 954.894531 C 527.992188 988.082031 527.992188 1042.386719 561.183594 1075.574219 C 594.371094 1108.761719 648.683594 1108.757812 681.875 1075.574219 Z M 621.972656 894.109375 L 182.773438 894.109375 C 175.152344 894.109375 168.921875 887.875 168.921875 880.257812 L 168.921875 850.171875 C 168.921875 842.554688 175.152344 836.320312 182.773438 836.320312 L 679.765625 836.320312 Z M 921.144531 836.320312 L 1092.179688 836.320312 C 1099.796875 836.320312 1106.03125 842.554688 1106.03125 850.171875 L 1106.03125 880.257812 C 1106.03125 887.875 1099.796875 894.109375 1092.179688 894.109375 L 863.351562 894.109375 Z M 752.5625 579.117188 L 783.132812 548.550781 C 854.25 619.664062 905.558594 670.964844 976.679688 742.078125 L 662.511719 1056.214844 C 639.972656 1078.753906 603.085938 1078.753906 580.542969 1056.214844 C 558 1033.675781 558 996.792969 580.542969 974.253906 L 745.894531 808.914062 L 711.621094 733.285156 L 724.796875 720.109375 L 753.339844 748.652344 C 764.035156 759.34375 781.371094 759.34375 792.0625 748.652344 L 837.726562 702.992188 C 842.863281 697.859375 845.746094 690.894531 845.746094 683.632812 C 845.746094 676.371094 842.863281 669.410156 837.726562 664.277344 Z M 635.980469 1000.78125 C 628.773438 993.574219 617.085938 993.574219 609.882812 1000.78125 C 602.671875 1007.988281 602.671875 1019.675781 609.882812 1026.882812 C 617.085938 1034.085938 628.773438 1034.085938 635.980469 1026.882812 C 643.1875 1019.675781 643.1875 1007.988281 635.980469 1000.78125 Z M 906.605469 730.179688 C 899.089844 722.667969 886.796875 722.667969 879.28125 730.179688 L 664.386719 945.054688 C 656.875 952.566406 656.875 964.863281 664.386719 972.375 C 671.902344 979.886719 684.195312 979.886719 691.710938 972.375 L 906.605469 757.5 C 914.117188 749.988281 914.117188 737.695312 906.605469 730.179688 Z M 906.605469 730.179688 " fill-opacity="1" fill-rule="evenodd"/></g><g clip-path="url(#4623674b16)"><g clip-path="url(#4eaf7b0201)"><g transform="matrix(1, 0, 0, 1, 862, 865)"><g clip-path="url(#bd6ba4713e)"><g clip-path="url(#590a7177f9)"><g clip-path="url(#2ac13f73e7)"><path fill="#ffffff" d="M 0.0976562 0.914062 L 487.96875 0.914062 L 487.96875 485 L 0.0976562 485 Z M 0.0976562 0.914062 " fill-opacity="1" fill-rule="nonzero"/></g></g></g></g></g></g><g clip-path="url(#4e4ec4e536)"><g clip-path="url(#d19b133e49)"><path stroke-linecap="butt" transform="matrix(0.75, 0, 0, 0.75, 862.102399, 865.914289)" fill="none" stroke-linejoin="miter" d="M 325.259329 -0.000302555 C 145.623897 -0.000302555 -0.00111546 144.484085 -0.00111546 322.718475 C -0.00111546 500.952866 145.623897 645.437253 325.259329 645.437253 C 504.89997 645.437253 650.524982 500.952866 650.524982 322.718475 C 650.524982 144.484085 504.89997 -0.000302555 325.259329 -0.000302555 Z M 325.259329 -0.000302555 " stroke="#000000" stroke-width="14" stroke-opacity="1" stroke-miterlimit="4"/></g></g><g clip-path="url(#39e24b8060)"><path fill="#000000" d="M 1028.070312 1169.292969 L 1028.070312 1271.480469 L 981.746094 1271.480469 L 981.746094 1230.199219 C 981.746094 1208.464844 992.511719 1189.800781 1011.3125 1178.898438 Z M 1028.070312 1169.292969 " fill-opacity="1" fill-rule="nonzero"/></g><g clip-path="url(#44c00317dc)"><path fill="#000000" d="M 1230.402344 1230.199219 L 1230.402344 1271.480469 L 1184.078125 1271.480469 L 1184.078125 1169.292969 L 1200.835938 1178.96875 C 1219.570312 1189.800781 1230.402344 1208.464844 1230.402344 1230.199219 Z M 1230.402344 1230.199219 " fill-opacity="1" fill-rule="nonzero"/></g><g clip-path="url(#43674fc990)"><path fill="#000000" d="M 1172.632812 1162.6875 L 1172.632812 1271.480469 L 1039.515625 1271.480469 L 1039.515625 1162.6875 L 1067.992188 1146.199219 C 1069.765625 1145.179688 1070.855469 1143.339844 1070.855469 1141.296875 L 1070.855469 1128.894531 C 1080.9375 1135.4375 1093.199219 1138.980469 1106.074219 1138.980469 C 1118.949219 1138.980469 1131.210938 1135.4375 1141.296875 1128.894531 L 1141.296875 1141.296875 C 1141.296875 1143.339844 1142.386719 1145.246094 1144.15625 1146.199219 Z M 1172.632812 1162.6875 " fill-opacity="1" fill-rule="nonzero"/></g><path fill="#000000" d="M 1155.875 1048.507812 L 1155.875 1078.484375 C 1155.875 1112.273438 1130.054688 1127.671875 1106.074219 1127.671875 C 1082.09375 1127.671875 1056.273438 1112.273438 1056.273438 1078.484375 L 1056.273438 1048.507812 Z M 1155.875 1048.507812 " fill-opacity="1" fill-rule="nonzero"/><path fill="#000000" d="M 1033.863281 1014.445312 L 1178.289062 1014.445312 L 1178.289062 1037.132812 L 1033.863281 1037.132812 Z M 1033.863281 1014.445312 " fill-opacity="1" fill-rule="nonzero"/><g clip-path="url(#c888ed8a7d)"><path fill="#000000" d="M 1170.113281 1003.070312 L 1042.039062 1003.070312 C 1044.898438 970.300781 1072.558594 944.480469 1106.074219 944.480469 C 1139.59375 944.480469 1167.183594 970.300781 1170.113281 1003.070312 Z M 1170.113281 1003.070312 " fill-opacity="1" fill-rule="nonzero"/></g></svg>