<svg xmlns="http://www.w3.org/2000/svg" xmlns:xlink="http://www.w3.org/1999/xlink" width="2000" zoomAndPan="magnify" viewBox="0 0 1500 1499.999933" height="2000" preserveAspectRatio="xMidYMid meet" version="1.0"><defs><clipPath id="786cc1179c"><path d="M 388 863 L 524 863 L 524 1160.277344 L 388 1160.277344 Z M 388 863 " clip-rule="nonzero"/></clipPath><clipPath id="8b6bb77ba9"><path d="M 976 863 L 1111 863 L 1111 1160.277344 L 976 1160.277344 Z M 976 863 " clip-rule="nonzero"/></clipPath><clipPath id="3c0bf78cbe"><path d="M 556 746 L 944 746 L 944 1160.277344 L 556 1160.277344 Z M 556 746 " clip-rule="nonzero"/></clipPath><clipPath id="1c7c906803"><path d="M 564 210.777344 L 936 210.777344 L 936 381 L 564 381 Z M 564 210.777344 " clip-rule="nonzero"/></clipPath><clipPath id="1ab3ba3673"><path d="M 862.097656 865.914062 L 1350 865.914062 L 1350 1350 L 862.097656 1350 Z M 862.097656 865.914062 " clip-rule="nonzero"/></clipPath><clipPath id="1a6f2faca8"><path d="M 1106.050781 865.914062 C 971.320312 865.914062 862.097656 974.28125 862.097656 1107.957031 C 862.097656 1241.632812 971.320312 1350 1106.050781 1350 C 1240.78125 1350 1350 1241.632812 1350 1107.957031 C 1350 974.28125 1240.78125 865.914062 1106.050781 865.914062 Z M 1106.050781 865.914062 " clip-rule="nonzero"/></clipPath><clipPath id="ad33d4fef0"><path d="M 0.0976562 0.914062 L 488 0.914062 L 488 485 L 0.0976562 485 Z M 0.0976562 0.914062 " clip-rule="nonzero"/></clipPath><clipPath id="616b5ef671"><path d="M 244.050781 0.914062 C 109.320312 0.914062 0.0976562 109.28125 0.0976562 242.957031 C 0.0976562 376.632812 109.320312 485 244.050781 485 C 378.78125 485 488 376.632812 488 242.957031 C 488 109.28125 378.78125 0.914062 244.050781 0.914062 Z M 244.050781 0.914062 " clip-rule="nonzero"/></clipPath><clipPath id="b0c6cc1e01"><rect x="0" width="488" y="0" height="485"/></clipPath><clipPath id="88a6fc9646"><path d="M 862.101562 865.914062 L 1350 865.914062 L 1350 1349.664062 L 862.101562 1349.664062 Z M 862.101562 865.914062 " clip-rule="nonzero"/></clipPath><clipPath id="edbc43cbab"><path d="M 1106.046875 865.914062 C 971.320312 865.914062 862.101562 974.277344 862.101562 1107.953125 C 862.101562 1241.628906 971.320312 1349.992188 1106.046875 1349.992188 C 1240.777344 1349.992188 1349.996094 1241.628906 1349.996094 1107.953125 C 1349.996094 974.277344 1240.777344 865.914062 1106.046875 865.914062 Z M 1106.046875 865.914062 " clip-rule="nonzero"/></clipPath></defs><g clip-path="url(#786cc1179c)"><path fill="#000000" d="M 523.488281 863.558594 L 523.488281 1160.277344 L 388.976562 1160.277344 L 388.976562 1040.402344 C 388.976562 977.300781 420.230469 923.101562 474.828125 891.449219 Z M 523.488281 863.558594 " fill-opacity="1" fill-rule="nonzero"/></g><g clip-path="url(#8b6bb77ba9)"><path fill="#000000" d="M 1110.992188 1040.402344 L 1110.992188 1160.277344 L 976.480469 1160.277344 L 976.480469 863.558594 L 1025.140625 891.648438 C 1079.539062 923.101562 1110.992188 977.300781 1110.992188 1040.402344 Z M 1110.992188 1040.402344 " fill-opacity="1" fill-rule="nonzero"/></g><g clip-path="url(#3c0bf78cbe)"><path fill="#000000" d="M 943.246094 844.371094 L 943.246094 1160.277344 L 556.722656 1160.277344 L 556.722656 844.371094 L 639.40625 796.5 C 644.550781 793.53125 647.714844 788.191406 647.714844 782.257812 L 647.714844 746.253906 C 676.992188 765.246094 712.597656 775.53125 749.984375 775.53125 C 787.371094 775.53125 822.976562 765.246094 852.253906 746.253906 L 852.253906 782.257812 C 852.253906 788.191406 855.417969 793.730469 860.5625 796.5 Z M 943.246094 844.371094 " fill-opacity="1" fill-rule="nonzero"/></g><path fill="#000000" d="M 894.585938 512.835938 L 894.585938 599.875 C 894.585938 697.988281 819.613281 742.695312 749.984375 742.695312 C 680.355469 742.695312 605.382812 697.988281 605.382812 599.875 L 605.382812 512.835938 Z M 894.585938 512.835938 " fill-opacity="1" fill-rule="nonzero"/><path fill="#000000" d="M 540.304688 413.929688 L 959.664062 413.929688 L 959.664062 479.800781 L 540.304688 479.800781 Z M 540.304688 413.929688 " fill-opacity="1" fill-rule="nonzero"/><g clip-path="url(#1c7c906803)"><path fill="#000000" d="M 935.929688 380.894531 L 564.039062 380.894531 C 572.347656 285.746094 652.660156 210.777344 749.984375 210.777344 C 847.308594 210.777344 927.421875 285.746094 935.929688 380.894531 Z M 935.929688 380.894531 " fill-opacity="1" fill-rule="nonzero"/></g><g clip-path="url(#1ab3ba3673)"><g clip-path="url(#1a6f2faca8)"><g transform="matrix(1, 0, 0, 1, 862, 865)"><g clip-path="url(#b0c6cc1e01)"><g clip-path="url(#ad33d4fef0)"><g clip-path="url(#616b5ef671)"><path fill="#ffffff" d="M 0.0976562 0.914062 L 487.96875 0.914062 L 487.96875 485 L 0.0976562 485 Z M 0.0976562 0.914062 " fill-opacity="1" fill-rule="nonzero"/></g></g></g></g></g></g><g clip-path="url(#88a6fc9646)"><g clip-path="url(#edbc43cbab)"><path stroke-linecap="butt" transform="matrix(0.75, 0, 0, 0.75, 862.102399, 865.914289)" fill="none" stroke-linejoin="miter" d="M 325.259329 -0.000302555 C 145.623897 -0.000302555 -0.00111546 144.484085 -0.00111546 322.718475 C -0.00111546 500.952866 145.623897 645.437253 325.259329 645.437253 C 504.89997 645.437253 650.524982 500.952866 650.524982 322.718475 C 650.524982 144.484085 504.89997 -0.000302555 325.259329 -0.000302555 Z M 325.259329 -0.000302555 " stroke="#000000" stroke-width="14" stroke-opacity="1" stroke-miterlimit="4"/></g></g><path fill="#000000" d="M 1190.339844 1184.984375 L 1132.355469 1158.132812 C 1122.25 1153.460938 1113.492188 1163.378906 1107.535156 1170.347656 C 1107.347656 1170.613281 1107.113281 1170.835938 1106.839844 1171.015625 C 1106.566406 1171.195312 1106.269531 1171.316406 1105.953125 1171.382812 C 1105.632812 1171.449219 1105.3125 1171.457031 1104.988281 1171.402344 C 1104.667969 1171.347656 1104.367188 1171.238281 1104.085938 1171.070312 C 1099.980469 1168.03125 1096.046875 1164.785156 1092.289062 1161.328125 C 1088.527344 1157.871094 1084.964844 1154.226562 1081.589844 1150.386719 C 1078.21875 1146.550781 1075.0625 1142.546875 1072.117188 1138.375 C 1069.171875 1134.199219 1066.453125 1129.882812 1063.96875 1125.421875 C 1061.480469 1120.957031 1059.238281 1116.375 1057.242188 1111.671875 C 1055.242188 1106.972656 1053.5 1102.175781 1052.011719 1097.289062 C 1050.519531 1092.402344 1049.296875 1087.449219 1048.335938 1082.433594 C 1047.371094 1077.414062 1046.679688 1072.359375 1046.253906 1067.265625 C 1046.253906 1066.941406 1046.3125 1066.625 1046.433594 1066.320312 C 1046.554688 1066.015625 1046.726562 1065.746094 1046.953125 1065.511719 C 1047.179688 1065.277344 1047.441406 1065.089844 1047.738281 1064.957031 C 1048.039062 1064.824219 1048.351562 1064.753906 1048.675781 1064.742188 C 1057.707031 1063.269531 1070.734375 1061.09375 1072.105469 1050 L 1079.726562 986.503906 C 1080.792969 974.109375 1066.621094 969.050781 1056.96875 965.578125 C 1055.371094 965.128906 1053.757812 964.757812 1052.125 964.464844 C 1050.496094 964.171875 1048.851562 963.960938 1047.199219 963.832031 C 1045.546875 963.699219 1043.894531 963.652344 1042.234375 963.683594 C 1040.578125 963.714844 1038.925781 963.828125 1037.28125 964.019531 C 1035.632812 964.214844 1034 964.488281 1032.382812 964.839844 C 1030.761719 965.195312 1029.164062 965.625 1027.585938 966.136719 C 1026.007812 966.648438 1024.460938 967.234375 1022.941406 967.894531 C 1021.421875 968.558594 1019.9375 969.292969 1018.488281 970.101562 C 1017.039062 970.90625 1015.636719 971.785156 1014.273438 972.730469 C 1012.910156 973.675781 1011.597656 974.683594 1010.335938 975.757812 C 1009.070312 976.832031 1007.863281 977.964844 1006.710938 979.15625 C 1005.558594 980.351562 1004.464844 981.597656 1003.4375 982.894531 C 1002.40625 984.195312 1001.441406 985.542969 1000.542969 986.933594 C 999.644531 988.328125 998.8125 989.765625 998.054688 991.238281 C 997.296875 992.714844 996.613281 994.222656 996 995.765625 C 995.390625 997.308594 994.855469 998.875 994.398438 1000.46875 C 993.496094 1003.65625 992.671875 1006.859375 991.925781 1010.085938 C 991.179688 1013.308594 990.515625 1016.550781 989.925781 1019.808594 C 989.339844 1023.066406 988.832031 1026.339844 988.40625 1029.621094 C 987.980469 1032.902344 987.632812 1036.195312 987.371094 1039.496094 C 987.105469 1042.792969 986.921875 1046.097656 986.816406 1049.40625 C 986.714844 1052.714844 986.691406 1056.027344 986.75 1059.335938 C 986.808594 1062.644531 986.949219 1065.953125 987.171875 1069.253906 C 987.394531 1072.558594 987.695312 1075.851562 988.078125 1079.140625 C 988.460938 1082.429688 988.925781 1085.707031 989.46875 1088.972656 C 990.011719 1092.238281 990.636719 1095.488281 991.339844 1098.722656 C 992.042969 1101.957031 992.824219 1105.171875 993.683594 1108.367188 C 994.542969 1111.566406 995.484375 1114.738281 996.5 1117.886719 C 997.515625 1121.039062 998.609375 1124.164062 999.777344 1127.257812 C 1000.949219 1130.355469 1002.191406 1133.421875 1003.511719 1136.457031 C 1004.832031 1139.492188 1006.226562 1142.492188 1007.691406 1145.460938 C 1009.160156 1148.425781 1010.699219 1151.355469 1012.308594 1154.246094 C 1013.917969 1157.140625 1015.601562 1159.988281 1017.351562 1162.796875 C 1019.101562 1165.605469 1020.917969 1168.371094 1022.804688 1171.089844 C 1024.691406 1173.808594 1026.644531 1176.480469 1028.660156 1179.105469 C 1030.675781 1181.730469 1032.757812 1184.300781 1034.898438 1186.824219 C 1037.042969 1189.34375 1039.246094 1191.8125 1041.511719 1194.226562 C 1043.777344 1196.636719 1046.097656 1198.996094 1048.476562 1201.292969 C 1050.855469 1203.59375 1053.292969 1205.832031 1055.78125 1208.011719 C 1058.269531 1210.191406 1060.8125 1212.308594 1063.40625 1214.363281 C 1066 1216.417969 1068.640625 1218.40625 1071.332031 1220.332031 C 1074.023438 1222.257812 1076.757812 1224.113281 1079.542969 1225.90625 C 1082.324219 1227.695312 1085.148438 1229.417969 1088.015625 1231.066406 C 1090.878906 1232.71875 1093.785156 1234.300781 1096.730469 1235.808594 C 1099.671875 1237.316406 1102.652344 1238.753906 1105.667969 1240.117188 C 1108.679688 1241.480469 1111.726562 1242.765625 1114.804688 1243.980469 C 1117.882812 1245.191406 1120.988281 1246.328125 1124.121094 1247.390625 C 1127.253906 1248.449219 1130.410156 1249.433594 1133.59375 1250.339844 C 1135.1875 1250.785156 1136.804688 1251.152344 1138.4375 1251.441406 C 1140.066406 1251.730469 1141.710938 1251.9375 1143.363281 1252.066406 C 1145.015625 1252.195312 1146.671875 1252.242188 1148.328125 1252.207031 C 1149.984375 1252.171875 1151.636719 1252.058594 1153.28125 1251.863281 C 1154.929688 1251.667969 1156.5625 1251.390625 1158.179688 1251.035156 C 1159.800781 1250.679688 1161.398438 1250.246094 1162.972656 1249.734375 C 1164.550781 1249.222656 1166.097656 1248.636719 1167.617188 1247.972656 C 1169.136719 1247.308594 1170.621094 1246.574219 1172.066406 1245.765625 C 1173.515625 1244.957031 1174.917969 1244.078125 1176.28125 1243.132812 C 1177.644531 1242.1875 1178.957031 1241.175781 1180.21875 1240.101562 C 1181.480469 1239.027344 1182.6875 1237.894531 1183.84375 1236.703125 C 1184.996094 1235.511719 1186.085938 1234.265625 1187.117188 1232.964844 C 1188.148438 1231.667969 1189.113281 1230.320312 1190.011719 1228.925781 C 1190.910156 1227.53125 1191.738281 1226.097656 1192.5 1224.625 C 1193.257812 1223.148438 1193.941406 1221.640625 1194.554688 1220.097656 C 1195.167969 1218.554688 1195.703125 1216.988281 1196.160156 1215.394531 C 1198.359375 1205.292969 1201.40625 1190.574219 1190.339844 1184.984375 Z M 1190.339844 1184.984375 " fill-opacity="1" fill-rule="nonzero"/><path fill="#000000" d="M 1135.152344 1033.394531 C 1137.34375 1033.816406 1139.507812 1034.351562 1141.644531 1034.996094 C 1143.78125 1035.640625 1145.878906 1036.394531 1147.933594 1037.261719 C 1149.992188 1038.125 1152 1039.09375 1153.957031 1040.164062 C 1155.914062 1041.238281 1157.8125 1042.410156 1159.648438 1043.679688 C 1161.484375 1044.949219 1163.25 1046.3125 1164.941406 1047.765625 C 1166.636719 1049.21875 1168.25 1050.757812 1169.785156 1052.378906 C 1171.320312 1054 1172.765625 1055.695312 1174.125 1057.46875 C 1175.484375 1059.238281 1176.746094 1061.078125 1177.914062 1062.980469 C 1179.019531 1064.921875 1180.023438 1066.914062 1180.921875 1068.957031 C 1181.820312 1071 1182.613281 1073.085938 1183.292969 1075.214844 C 1183.976562 1077.339844 1184.546875 1079.496094 1185.007812 1081.679688 C 1185.464844 1083.867188 1185.808594 1086.070312 1186.039062 1088.292969 C 1186.269531 1090.515625 1186.382812 1092.742188 1186.382812 1094.976562 C 1186.378906 1097.207031 1186.261719 1099.4375 1186.03125 1101.65625 C 1185.796875 1103.878906 1185.449219 1106.082031 1184.988281 1108.265625 C 1184.527344 1110.453125 1183.953125 1112.605469 1183.269531 1114.734375 C 1183.167969 1115.050781 1183.097656 1115.375 1183.058594 1115.707031 C 1183.019531 1116.039062 1183.015625 1116.375 1183.042969 1116.707031 C 1183.066406 1117.039062 1183.125 1117.367188 1183.214844 1117.6875 C 1183.308594 1118.011719 1183.425781 1118.320312 1183.578125 1118.621094 C 1183.726562 1118.917969 1183.90625 1119.199219 1184.109375 1119.464844 C 1184.316406 1119.726562 1184.542969 1119.96875 1184.796875 1120.1875 C 1185.046875 1120.40625 1185.320312 1120.601562 1185.609375 1120.765625 C 1185.898438 1120.933594 1186.199219 1121.070312 1186.515625 1121.179688 C 1186.832031 1121.285156 1187.15625 1121.363281 1187.488281 1121.40625 C 1187.820312 1121.453125 1188.152344 1121.464844 1188.484375 1121.445312 C 1188.816406 1121.425781 1189.144531 1121.371094 1189.46875 1121.289062 C 1189.792969 1121.203125 1190.105469 1121.089844 1190.40625 1120.945312 C 1190.707031 1120.800781 1190.992188 1120.628906 1191.257812 1120.429688 C 1191.527344 1120.230469 1191.773438 1120.003906 1191.996094 1119.757812 C 1192.222656 1119.507812 1192.417969 1119.242188 1192.589844 1118.957031 C 1192.761719 1118.667969 1192.90625 1118.367188 1193.019531 1118.054688 C 1193.429688 1116.820312 1193.808594 1115.574219 1194.152344 1114.320312 C 1194.496094 1113.066406 1194.808594 1111.800781 1195.085938 1110.53125 C 1195.359375 1109.257812 1195.601562 1107.980469 1195.8125 1106.695312 C 1196.019531 1105.414062 1196.195312 1104.125 1196.332031 1102.828125 C 1196.472656 1101.535156 1196.578125 1100.238281 1196.648438 1098.941406 C 1196.71875 1097.640625 1196.753906 1096.339844 1196.753906 1095.039062 C 1196.753906 1093.738281 1196.71875 1092.4375 1196.652344 1091.136719 C 1196.582031 1089.839844 1196.480469 1088.542969 1196.339844 1087.246094 C 1196.203125 1085.953125 1196.03125 1084.664062 1195.824219 1083.378906 C 1195.613281 1082.09375 1195.375 1080.816406 1195.097656 1079.546875 C 1194.824219 1078.273438 1194.511719 1077.011719 1194.171875 1075.753906 C 1193.828125 1074.5 1193.449219 1073.253906 1193.039062 1072.019531 C 1192.632812 1070.785156 1192.1875 1069.5625 1191.714844 1068.351562 C 1191.238281 1067.140625 1190.730469 1065.941406 1190.191406 1064.757812 C 1189.652344 1063.574219 1189.082031 1062.40625 1188.480469 1061.25 C 1187.878906 1060.097656 1187.246094 1058.960938 1186.585938 1057.839844 C 1185.921875 1056.722656 1185.230469 1055.621094 1184.507812 1054.539062 C 1183.789062 1053.453125 1183.039062 1052.390625 1182.261719 1051.351562 C 1181.480469 1050.308594 1180.675781 1049.285156 1179.84375 1048.285156 C 1179.011719 1047.289062 1178.152344 1046.3125 1177.265625 1045.359375 C 1176.382812 1044.40625 1175.472656 1043.476562 1174.539062 1042.570312 C 1173.601562 1041.667969 1172.644531 1040.789062 1171.664062 1039.933594 C 1170.679688 1039.082031 1169.679688 1038.253906 1168.652344 1037.457031 C 1167.625 1036.65625 1166.578125 1035.882812 1165.511719 1035.140625 C 1164.445312 1034.398438 1163.359375 1033.683594 1162.253906 1032.996094 C 1161.148438 1032.3125 1160.027344 1031.65625 1158.886719 1031.03125 C 1157.746094 1030.40625 1156.589844 1029.8125 1155.417969 1029.25 C 1154.246094 1028.6875 1153.058594 1028.15625 1151.859375 1027.65625 C 1150.65625 1027.15625 1149.445312 1026.6875 1148.21875 1026.253906 C 1146.992188 1025.820312 1145.757812 1025.417969 1144.511719 1025.050781 C 1143.261719 1024.679688 1142.007812 1024.347656 1140.742188 1024.046875 C 1139.476562 1023.742188 1138.207031 1023.476562 1136.925781 1023.242188 C 1136.597656 1023.191406 1136.265625 1023.175781 1135.933594 1023.1875 C 1135.597656 1023.203125 1135.269531 1023.246094 1134.945312 1023.324219 C 1134.621094 1023.402344 1134.304688 1023.511719 1134.003906 1023.648438 C 1133.699219 1023.789062 1133.410156 1023.957031 1133.140625 1024.148438 C 1132.871094 1024.34375 1132.621094 1024.5625 1132.390625 1024.808594 C 1132.164062 1025.050781 1131.960938 1025.3125 1131.78125 1025.597656 C 1131.605469 1025.878906 1131.457031 1026.175781 1131.335938 1026.488281 C 1131.214844 1026.800781 1131.128906 1027.121094 1131.070312 1027.449219 C 1131.011719 1027.777344 1130.988281 1028.109375 1130.992188 1028.445312 C 1131 1028.777344 1131.039062 1029.109375 1131.109375 1029.433594 C 1131.183594 1029.761719 1131.285156 1030.078125 1131.417969 1030.382812 C 1131.546875 1030.691406 1131.710938 1030.980469 1131.898438 1031.257812 C 1132.085938 1031.53125 1132.300781 1031.785156 1132.539062 1032.019531 C 1132.777344 1032.253906 1133.035156 1032.460938 1133.316406 1032.644531 C 1133.59375 1032.828125 1133.886719 1032.984375 1134.199219 1033.109375 C 1134.507812 1033.234375 1134.824219 1033.332031 1135.152344 1033.394531 Z M 1135.152344 1033.394531 " fill-opacity="1" fill-rule="nonzero"/><path fill="#000000" d="M 1109.882812 1068.078125 C 1111.289062 1068.328125 1112.679688 1068.648438 1114.050781 1069.046875 C 1115.425781 1069.441406 1116.773438 1069.910156 1118.09375 1070.453125 C 1119.417969 1070.996094 1120.707031 1071.609375 1121.960938 1072.289062 C 1123.21875 1072.972656 1124.433594 1073.71875 1125.609375 1074.535156 C 1126.785156 1075.347656 1127.914062 1076.21875 1128.996094 1077.15625 C 1130.074219 1078.089844 1131.101562 1079.082031 1132.078125 1080.128906 C 1133.050781 1081.171875 1133.96875 1082.269531 1134.824219 1083.414062 C 1135.679688 1084.558594 1136.472656 1085.746094 1137.199219 1086.976562 C 1137.929688 1088.207031 1138.585938 1089.476562 1139.179688 1090.777344 C 1139.769531 1092.078125 1140.289062 1093.410156 1140.738281 1094.765625 C 1141.1875 1096.125 1141.558594 1097.503906 1141.859375 1098.902344 C 1142.160156 1100.300781 1142.382812 1101.710938 1142.527344 1103.132812 C 1142.675781 1104.554688 1142.746094 1105.980469 1142.738281 1107.410156 C 1142.734375 1108.84375 1142.648438 1110.265625 1142.488281 1111.6875 C 1142.328125 1113.109375 1142.09375 1114.519531 1141.78125 1115.914062 C 1141.46875 1117.308594 1141.082031 1118.683594 1140.621094 1120.039062 C 1140.511719 1120.359375 1140.433594 1120.6875 1140.390625 1121.019531 C 1140.347656 1121.355469 1140.335938 1121.691406 1140.355469 1122.03125 C 1140.378906 1122.367188 1140.433594 1122.699219 1140.519531 1123.027344 C 1140.605469 1123.355469 1140.722656 1123.671875 1140.875 1123.972656 C 1141.023438 1124.277344 1141.199219 1124.5625 1141.40625 1124.832031 C 1141.609375 1125.101562 1141.839844 1125.347656 1142.09375 1125.570312 C 1142.347656 1125.792969 1142.621094 1125.992188 1142.914062 1126.160156 C 1143.207031 1126.328125 1143.511719 1126.46875 1143.832031 1126.578125 C 1144.152344 1126.6875 1144.480469 1126.765625 1144.816406 1126.808594 C 1145.148438 1126.855469 1145.484375 1126.867188 1145.824219 1126.84375 C 1146.160156 1126.820312 1146.492188 1126.769531 1146.820312 1126.679688 C 1147.144531 1126.59375 1147.460938 1126.476562 1147.765625 1126.328125 C 1148.066406 1126.175781 1148.355469 1126 1148.621094 1125.792969 C 1148.890625 1125.589844 1149.136719 1125.359375 1149.359375 1125.105469 C 1149.582031 1124.851562 1149.78125 1124.578125 1149.949219 1124.285156 C 1150.117188 1123.992188 1150.257812 1123.683594 1150.367188 1123.363281 C 1151.472656 1119.9375 1152.214844 1116.429688 1152.59375 1112.84375 C 1152.96875 1109.261719 1152.972656 1105.675781 1152.601562 1102.089844 C 1152.230469 1098.507812 1151.492188 1095 1150.390625 1091.566406 C 1149.289062 1088.136719 1147.84375 1084.855469 1146.058594 1081.726562 C 1144.195312 1078.640625 1142.03125 1075.78125 1139.5625 1073.152344 C 1137.09375 1070.523438 1134.375 1068.183594 1131.410156 1066.132812 C 1128.445312 1064.082031 1125.296875 1062.363281 1121.96875 1060.980469 C 1118.640625 1059.597656 1115.203125 1058.582031 1111.65625 1057.925781 C 1111.328125 1057.878906 1110.996094 1057.859375 1110.664062 1057.871094 C 1110.328125 1057.886719 1110 1057.933594 1109.675781 1058.011719 C 1109.351562 1058.089844 1109.039062 1058.195312 1108.734375 1058.335938 C 1108.433594 1058.472656 1108.144531 1058.640625 1107.875 1058.835938 C 1107.601562 1059.03125 1107.351562 1059.25 1107.125 1059.492188 C 1106.898438 1059.734375 1106.695312 1060 1106.515625 1060.28125 C 1106.339844 1060.566406 1106.191406 1060.863281 1106.070312 1061.171875 C 1105.949219 1061.484375 1105.863281 1061.804688 1105.804688 1062.132812 C 1105.746094 1062.460938 1105.722656 1062.792969 1105.730469 1063.128906 C 1105.734375 1063.460938 1105.773438 1063.792969 1105.84375 1064.117188 C 1105.917969 1064.445312 1106.019531 1064.761719 1106.148438 1065.066406 C 1106.28125 1065.371094 1106.441406 1065.664062 1106.632812 1065.9375 C 1106.820312 1066.214844 1107.035156 1066.46875 1107.273438 1066.703125 C 1107.511719 1066.9375 1107.769531 1067.144531 1108.046875 1067.328125 C 1108.324219 1067.511719 1108.621094 1067.667969 1108.929688 1067.792969 C 1109.238281 1067.917969 1109.554688 1068.015625 1109.882812 1068.078125 Z M 1109.882812 1068.078125 " fill-opacity="1" fill-rule="nonzero"/><path fill="#000000" d="M 1224.3125 1030.171875 C 1220.710938 1023.785156 1216.640625 1017.710938 1212.101562 1011.957031 C 1207.5625 1006.199219 1202.605469 1000.828125 1197.234375 995.84375 C 1191.859375 990.855469 1186.136719 986.3125 1180.058594 982.214844 C 1173.984375 978.117188 1167.628906 974.511719 1160.992188 971.402344 C 1160.683594 971.277344 1160.363281 971.1875 1160.035156 971.128906 C 1159.707031 971.070312 1159.375 971.042969 1159.039062 971.046875 C 1158.707031 971.050781 1158.375 971.089844 1158.050781 971.15625 C 1157.722656 971.226562 1157.40625 971.328125 1157.097656 971.457031 C 1156.792969 971.589844 1156.5 971.746094 1156.222656 971.9375 C 1155.945312 972.125 1155.691406 972.335938 1155.457031 972.574219 C 1155.222656 972.8125 1155.011719 973.070312 1154.828125 973.347656 C 1154.640625 973.625 1154.484375 973.917969 1154.355469 974.226562 C 1154.230469 974.535156 1154.132812 974.855469 1154.066406 975.183594 C 1154 975.511719 1153.964844 975.839844 1153.964844 976.175781 C 1153.964844 976.507812 1153.992188 976.839844 1154.054688 977.167969 C 1154.121094 977.496094 1154.214844 977.816406 1154.335938 978.125 C 1154.460938 978.4375 1154.617188 978.730469 1154.796875 979.011719 C 1154.980469 979.292969 1155.1875 979.550781 1155.417969 979.792969 C 1155.652344 980.03125 1155.90625 980.246094 1156.179688 980.4375 C 1156.453125 980.628906 1156.746094 980.789062 1157.050781 980.925781 C 1202.8125 999.726562 1240.621094 1064.171875 1235.117188 1112.882812 C 1235.085938 1113.214844 1235.085938 1113.546875 1235.121094 1113.882812 C 1235.152344 1114.214844 1235.21875 1114.542969 1235.316406 1114.863281 C 1235.414062 1115.183594 1235.542969 1115.492188 1235.699219 1115.789062 C 1235.859375 1116.082031 1236.042969 1116.359375 1236.253906 1116.621094 C 1236.46875 1116.878906 1236.703125 1117.117188 1236.960938 1117.332031 C 1237.21875 1117.542969 1237.492188 1117.730469 1237.789062 1117.890625 C 1238.082031 1118.050781 1238.390625 1118.179688 1238.710938 1118.28125 C 1239.03125 1118.378906 1239.355469 1118.449219 1239.6875 1118.484375 C 1240.023438 1118.519531 1240.355469 1118.523438 1240.6875 1118.496094 C 1241.023438 1118.464844 1241.351562 1118.40625 1241.671875 1118.3125 C 1241.992188 1118.21875 1242.304688 1118.097656 1242.601562 1117.941406 C 1242.898438 1117.789062 1243.179688 1117.609375 1243.441406 1117.398438 C 1243.703125 1117.191406 1243.945312 1116.960938 1244.160156 1116.707031 C 1244.378906 1116.449219 1244.570312 1116.175781 1244.734375 1115.886719 C 1244.898438 1115.59375 1245.03125 1115.289062 1245.136719 1114.96875 C 1245.242188 1114.652344 1245.3125 1114.324219 1245.355469 1113.992188 C 1246.394531 1104.425781 1247.941406 1070.113281 1224.3125 1030.171875 Z M 1224.3125 1030.171875 " fill-opacity="1" fill-rule="nonzero"/></svg>