<svg xmlns="http://www.w3.org/2000/svg" xmlns:xlink="http://www.w3.org/1999/xlink" width="2000" zoomAndPan="magnify" viewBox="0 0 1500 1499.999933" height="2000" preserveAspectRatio="xMidYMid meet" version="1.0"><defs><clipPath id="09e1266530"><path d="M 508 1147 L 669 1147 L 669 1211.089844 L 508 1211.089844 Z M 508 1147 " clip-rule="nonzero"/></clipPath><clipPath id="336d9a4183"><path d="M 237.289062 364 L 940 364 L 940 685 L 237.289062 685 Z M 237.289062 364 " clip-rule="nonzero"/></clipPath><clipPath id="01f8244fd5"><path d="M 862.097656 865.914062 L 1350 865.914062 L 1350 1350 L 862.097656 1350 Z M 862.097656 865.914062 " clip-rule="nonzero"/></clipPath><clipPath id="3a297d321a"><path d="M 1106.050781 865.914062 C 971.320312 865.914062 862.097656 974.28125 862.097656 1107.957031 C 862.097656 1241.632812 971.320312 1350 1106.050781 1350 C 1240.78125 1350 1350 1241.632812 1350 1107.957031 C 1350 974.28125 1240.78125 865.914062 1106.050781 865.914062 Z M 1106.050781 865.914062 " clip-rule="nonzero"/></clipPath><clipPath id="bfaf146fb3"><path d="M 0.0976562 0.914062 L 488 0.914062 L 488 485 L 0.0976562 485 Z M 0.0976562 0.914062 " clip-rule="nonzero"/></clipPath><clipPath id="3575c2d5b8"><path d="M 244.050781 0.914062 C 109.320312 0.914062 0.0976562 109.28125 0.0976562 242.957031 C 0.0976562 376.632812 109.320312 485 244.050781 485 C 378.78125 485 488 376.632812 488 242.957031 C 488 109.28125 378.78125 0.914062 244.050781 0.914062 Z M 244.050781 0.914062 " clip-rule="nonzero"/></clipPath><clipPath id="f86dacd06b"><rect x="0" width="488" y="0" height="485"/></clipPath><clipPath id="683c711e4d"><path d="M 862.101562 865.914062 L 1350 865.914062 L 1350 1349.664062 L 862.101562 1349.664062 Z M 862.101562 865.914062 " clip-rule="nonzero"/></clipPath><clipPath id="ef73b79a37"><path d="M 1106.046875 865.914062 C 971.320312 865.914062 862.101562 974.277344 862.101562 1107.953125 C 862.101562 1241.628906 971.320312 1349.992188 1106.046875 1349.992188 C 1240.777344 1349.992188 1349.996094 1241.628906 1349.996094 1107.953125 C 1349.996094 974.277344 1240.777344 865.914062 1106.046875 865.914062 Z M 1106.046875 865.914062 " clip-rule="nonzero"/></clipPath><clipPath id="fe21b573c6"><path d="M 981 1169 L 1029 1169 L 1029 1271.480469 L 981 1271.480469 Z M 981 1169 " clip-rule="nonzero"/></clipPath><clipPath id="5fe1926184"><path d="M 1184 1169 L 1231 1169 L 1231 1271.480469 L 1184 1271.480469 Z M 1184 1169 " clip-rule="nonzero"/></clipPath><clipPath id="3617ef0a25"><path d="M 1039 1128 L 1173 1128 L 1173 1271.480469 L 1039 1271.480469 Z M 1039 1128 " clip-rule="nonzero"/></clipPath><clipPath id="36d2cd5c5e"><path d="M 1042 944.480469 L 1171 944.480469 L 1171 1004 L 1042 1004 Z M 1042 944.480469 " clip-rule="nonzero"/></clipPath></defs><path fill="#000000" d="M 508.753906 1035.386719 L 668.503906 1035.386719 L 668.503906 1115.203125 L 508.753906 1115.203125 Z M 508.753906 1035.386719 " fill-opacity="1" fill-rule="nonzero"/><g clip-path="url(#09e1266530)"><path fill="#000000" d="M 508.753906 1163.132812 C 508.753906 1189.601562 530.214844 1211.066406 556.6875 1211.066406 L 620.570312 1211.066406 C 647.039062 1211.066406 668.503906 1189.601562 668.503906 1163.132812 L 668.503906 1147.191406 L 508.753906 1147.191406 Z M 508.753906 1163.132812 " fill-opacity="1" fill-rule="nonzero"/></g><path fill="#000000" d="M 269.277344 843.761719 C 269.277344 896.601562 312.308594 939.625 365.148438 939.625 L 492.910156 939.625 L 492.910156 987.554688 C 492.910156 996.34375 500.066406 1003.5 508.855469 1003.5 L 668.605469 1003.5 C 677.394531 1003.5 684.550781 996.34375 684.550781 987.554688 L 684.550781 939.625 L 812.3125 939.625 C 865.152344 939.625 908.183594 896.601562 908.183594 843.761719 L 908.183594 716.015625 L 269.382812 716.015625 L 269.382812 843.761719 Z M 269.277344 843.761719 " fill-opacity="1" fill-rule="nonzero"/><g clip-path="url(#336d9a4183)"><path fill="#000000" d="M 924.023438 620.253906 L 604.625 620.253906 L 604.625 572.324219 L 636.613281 572.324219 C 636.613281 581.113281 643.769531 588.265625 652.558594 588.265625 C 661.347656 588.265625 668.503906 581.113281 668.503906 572.324219 L 668.503906 540.335938 C 668.503906 531.546875 661.347656 524.394531 652.558594 524.394531 C 643.769531 524.394531 636.613281 531.546875 636.613281 540.335938 L 604.625 540.335938 L 604.625 428.632812 C 604.625 393.375 576.003906 364.757812 540.742188 364.757812 C 505.480469 364.757812 476.863281 393.375 476.863281 428.632812 L 476.863281 476.566406 C 476.863281 485.355469 484.019531 492.507812 492.808594 492.507812 C 501.597656 492.507812 508.753906 485.355469 508.753906 476.566406 L 508.753906 428.632812 C 508.753906 411.054688 523.0625 396.644531 540.742188 396.644531 C 558.425781 396.644531 572.734375 410.953125 572.734375 428.632812 L 572.734375 620.253906 L 253.234375 620.253906 C 244.441406 620.253906 237.289062 627.410156 237.289062 636.199219 L 237.289062 668.1875 C 237.289062 676.976562 244.441406 684.128906 253.234375 684.128906 L 924.023438 684.128906 C 932.8125 684.128906 939.96875 676.976562 939.96875 668.1875 L 939.96875 636.199219 C 939.96875 627.410156 932.8125 620.253906 924.023438 620.253906 Z M 924.023438 620.253906 " fill-opacity="1" fill-rule="nonzero"/></g><path fill="#000000" d="M 1250.070312 730.117188 L 1043.097656 523.167969 C 1033.386719 513.457031 1030.933594 498.640625 1037.066406 486.273438 L 1061.597656 437.117188 C 1067.730469 424.851562 1065.378906 409.929688 1055.566406 400.222656 L 1049.230469 393.886719 C 1036.761719 381.417969 1016.523438 381.417969 1004.054688 393.886719 L 925.148438 472.988281 C 912.679688 485.457031 912.679688 505.691406 925.148438 518.160156 L 1193.546875 786.53125 C 1206.015625 799 1226.253906 799 1238.722656 786.53125 L 1250.070312 775.1875 C 1262.539062 762.71875 1262.539062 742.484375 1250.070312 730.117188 Z M 1250.070312 730.117188 " fill-opacity="1" fill-rule="nonzero"/><path fill="#000000" d="M 1123.738281 504.054688 C 1129.972656 497.820312 1129.972656 487.703125 1123.738281 481.46875 L 1091.238281 448.972656 C 1090.828125 449.789062 1090.625 450.503906 1090.214844 451.320312 L 1065.683594 500.480469 L 1096.550781 531.34375 Z M 1123.738281 504.054688 " fill-opacity="1" fill-rule="nonzero"/><path fill="#000000" d="M 962.351562 406.253906 L 1010.1875 358.421875 L 913.90625 271.554688 C 888.96875 246.617188 848.492188 246.617188 823.554688 271.554688 L 767.136719 327.96875 C 747.410156 347.691406 743.320312 377.023438 754.664062 400.734375 C 759.367188 410.648438 772.550781 412.792969 780.320312 405.027344 L 868.730469 316.625 L 899.289062 347.179688 L 810.878906 435.582031 C 803.113281 443.351562 805.359375 456.535156 815.171875 461.234375 C 838.886719 472.578125 868.320312 468.492188 887.945312 448.765625 L 944.363281 392.351562 Z M 962.351562 406.253906 " fill-opacity="1" fill-rule="nonzero"/><g clip-path="url(#01f8244fd5)"><g clip-path="url(#3a297d321a)"><g transform="matrix(1, 0, 0, 1, 862, 865)"><g clip-path="url(#f86dacd06b)"><g clip-path="url(#bfaf146fb3)"><g clip-path="url(#3575c2d5b8)"><path fill="#ffffff" d="M 0.0976562 0.914062 L 487.96875 0.914062 L 487.96875 485 L 0.0976562 485 Z M 0.0976562 0.914062 " fill-opacity="1" fill-rule="nonzero"/></g></g></g></g></g></g><g clip-path="url(#683c711e4d)"><g clip-path="url(#ef73b79a37)"><path stroke-linecap="butt" transform="matrix(0.75, 0, 0, 0.75, 862.102399, 865.914289)" fill="none" stroke-linejoin="miter" d="M 325.259329 -0.000302555 C 145.623897 -0.000302555 -0.00111546 144.484085 -0.00111546 322.718475 C -0.00111546 500.952866 145.623897 645.437253 325.259329 645.437253 C 504.89997 645.437253 650.524982 500.952866 650.524982 322.718475 C 650.524982 144.484085 504.89997 -0.000302555 325.259329 -0.000302555 Z M 325.259329 -0.000302555 " stroke="#000000" stroke-width="14" stroke-opacity="1" stroke-miterlimit="4"/></g></g><g clip-path="url(#fe21b573c6)"><path fill="#000000" d="M 1028.070312 1169.292969 L 1028.070312 1271.480469 L 981.746094 1271.480469 L 981.746094 1230.199219 C 981.746094 1208.464844 992.511719 1189.800781 1011.3125 1178.898438 Z M 1028.070312 1169.292969 " fill-opacity="1" fill-rule="nonzero"/></g><g clip-path="url(#5fe1926184)"><path fill="#000000" d="M 1230.402344 1230.199219 L 1230.402344 1271.480469 L 1184.078125 1271.480469 L 1184.078125 1169.292969 L 1200.835938 1178.96875 C 1219.570312 1189.800781 1230.402344 1208.464844 1230.402344 1230.199219 Z M 1230.402344 1230.199219 " fill-opacity="1" fill-rule="nonzero"/></g><g clip-path="url(#3617ef0a25)"><path fill="#000000" d="M 1172.632812 1162.6875 L 1172.632812 1271.480469 L 1039.515625 1271.480469 L 1039.515625 1162.6875 L 1067.992188 1146.199219 C 1069.765625 1145.179688 1070.855469 1143.339844 1070.855469 1141.296875 L 1070.855469 1128.894531 C 1080.9375 1135.4375 1093.199219 1138.980469 1106.074219 1138.980469 C 1118.949219 1138.980469 1131.210938 1135.4375 1141.296875 1128.894531 L 1141.296875 1141.296875 C 1141.296875 1143.339844 1142.386719 1145.246094 1144.15625 1146.199219 Z M 1172.632812 1162.6875 " fill-opacity="1" fill-rule="nonzero"/></g><path fill="#000000" d="M 1155.875 1048.507812 L 1155.875 1078.484375 C 1155.875 1112.273438 1130.054688 1127.671875 1106.074219 1127.671875 C 1082.09375 1127.671875 1056.273438 1112.273438 1056.273438 1078.484375 L 1056.273438 1048.507812 Z M 1155.875 1048.507812 " fill-opacity="1" fill-rule="nonzero"/><path fill="#000000" d="M 1033.863281 1014.445312 L 1178.289062 1014.445312 L 1178.289062 1037.132812 L 1033.863281 1037.132812 Z M 1033.863281 1014.445312 " fill-opacity="1" fill-rule="nonzero"/><g clip-path="url(#36d2cd5c5e)"><path fill="#000000" d="M 1170.113281 1003.070312 L 1042.039062 1003.070312 C 1044.898438 970.300781 1072.558594 944.480469 1106.074219 944.480469 C 1139.59375 944.480469 1167.183594 970.300781 1170.113281 1003.070312 Z M 1170.113281 1003.070312 " fill-opacity="1" fill-rule="nonzero"/></g></svg>