<svg xmlns="http://www.w3.org/2000/svg" xmlns:xlink="http://www.w3.org/1999/xlink" width="2000" zoomAndPan="magnify" viewBox="0 0 1500 1499.999933" height="2000" preserveAspectRatio="xMidYMid meet" version="1.0"><defs><clipPath id="21b782f630"><path d="M 289.484375 273.796875 L 985.167969 273.796875 L 985.167969 1142.296875 L 289.484375 1142.296875 Z M 289.484375 273.796875 " clip-rule="nonzero"/></clipPath><clipPath id="19d92113aa"><path d="M 862.097656 865.914062 L 1350 865.914062 L 1350 1350 L 862.097656 1350 Z M 862.097656 865.914062 " clip-rule="nonzero"/></clipPath><clipPath id="2c11dd5fa5"><path d="M 1106.050781 865.914062 C 971.320312 865.914062 862.097656 974.28125 862.097656 1107.957031 C 862.097656 1241.632812 971.320312 1350 1106.050781 1350 C 1240.78125 1350 1350 1241.632812 1350 1107.957031 C 1350 974.28125 1240.78125 865.914062 1106.050781 865.914062 Z M 1106.050781 865.914062 " clip-rule="nonzero"/></clipPath><clipPath id="a785a018e4"><path d="M 0.0976562 0.914062 L 488 0.914062 L 488 485 L 0.0976562 485 Z M 0.0976562 0.914062 " clip-rule="nonzero"/></clipPath><clipPath id="c052672051"><path d="M 244.050781 0.914062 C 109.320312 0.914062 0.0976562 109.28125 0.0976562 242.957031 C 0.0976562 376.632812 109.320312 485 244.050781 485 C 378.78125 485 488 376.632812 488 242.957031 C 488 109.28125 378.78125 0.914062 244.050781 0.914062 Z M 244.050781 0.914062 " clip-rule="nonzero"/></clipPath><clipPath id="a84fb774ec"><rect x="0" width="488" y="0" height="485"/></clipPath><clipPath id="f59123c0dc"><path d="M 862.101562 865.914062 L 1350 865.914062 L 1350 1349.664062 L 862.101562 1349.664062 Z M 862.101562 865.914062 " clip-rule="nonzero"/></clipPath><clipPath id="953880a102"><path d="M 1106.046875 865.914062 C 971.320312 865.914062 862.101562 974.277344 862.101562 1107.953125 C 862.101562 1241.628906 971.320312 1349.992188 1106.046875 1349.992188 C 1240.777344 1349.992188 1349.996094 1241.628906 1349.996094 1107.953125 C 1349.996094 974.277344 1240.777344 865.914062 1106.046875 865.914062 Z M 1106.046875 865.914062 " clip-rule="nonzero"/></clipPath><clipPath id="fc105511f0"><path d="M 981 1169 L 1029 1169 L 1029 1271.480469 L 981 1271.480469 Z M 981 1169 " clip-rule="nonzero"/></clipPath><clipPath id="4abb29436e"><path d="M 1184 1169 L 1231 1169 L 1231 1271.480469 L 1184 1271.480469 Z M 1184 1169 " clip-rule="nonzero"/></clipPath><clipPath id="88e02c0793"><path d="M 1039 1128 L 1173 1128 L 1173 1271.480469 L 1039 1271.480469 Z M 1039 1128 " clip-rule="nonzero"/></clipPath><clipPath id="75adadfe71"><path d="M 1042 944.480469 L 1171 944.480469 L 1171 1004 L 1042 1004 Z M 1042 944.480469 " clip-rule="nonzero"/></clipPath></defs><path fill="#000000" d="M 855.058594 428.332031 L 808.390625 381.269531 L 808.390625 451.867188 L 878.402344 451.867188 L 855.058594 428.332031 " fill-opacity="1" fill-rule="nonzero"/><g clip-path="url(#21b782f630)"><path fill="#000000" d="M 960.585938 1051.234375 C 960.585938 1087.894531 930.765625 1117.714844 894.117188 1117.714844 L 380.519531 1117.714844 C 343.871094 1117.714844 314.058594 1087.894531 314.058594 1051.234375 L 314.058594 364.863281 C 314.058594 328.207031 343.871094 298.375 380.519531 298.375 L 784.230469 298.375 C 786.441406 298.429688 790.132812 298.789062 794.214844 300.648438 C 797.554688 302.160156 799.921875 304.113281 801.386719 305.539062 L 953.578125 459.019531 C 955.015625 460.546875 957.152344 463.171875 958.707031 466.980469 C 960.210938 470.683594 960.539062 473.972656 960.585938 476.050781 Z M 981.464844 457.722656 C 979.097656 451.910156 975.722656 446.65625 971.039062 441.71875 L 818.480469 287.871094 C 814.335938 283.875 809.601562 280.636719 804.382812 278.269531 C 798.191406 275.453125 791.605469 273.949219 784.222656 273.796875 L 380.519531 273.796875 C 330.324219 273.796875 289.484375 314.652344 289.484375 364.863281 L 289.484375 1051.226562 C 289.484375 1101.445312 330.324219 1142.296875 380.519531 1142.296875 L 894.117188 1142.296875 C 944.320312 1142.296875 985.160156 1101.445312 985.160156 1051.226562 L 985.160156 475.480469 C 985.015625 469.304688 983.753906 463.300781 981.464844 457.722656 " fill-opacity="1" fill-rule="nonzero"/></g><path fill="#000000" d="M 839.738281 586.859375 C 839.738281 600.210938 828.917969 611.035156 815.570312 611.035156 L 757.160156 611.035156 C 743.804688 611.035156 732.992188 600.210938 732.992188 586.859375 C 732.992188 573.503906 743.804688 562.675781 757.160156 562.675781 L 815.570312 562.675781 C 828.917969 562.675781 839.738281 573.503906 839.738281 586.859375 Z M 815.570312 703.710938 L 757.160156 703.710938 C 743.804688 703.710938 732.992188 692.882812 732.992188 679.53125 C 732.992188 666.175781 743.804688 655.355469 757.160156 655.355469 L 815.570312 655.355469 C 828.917969 655.355469 839.738281 666.175781 839.738281 679.53125 C 839.738281 692.882812 828.917969 703.710938 815.570312 703.710938 Z M 815.570312 792.355469 L 575.886719 792.355469 C 562.539062 792.355469 551.71875 781.53125 551.71875 768.179688 C 551.71875 754.824219 562.539062 744.003906 575.886719 744.003906 L 815.570312 744.003906 C 828.917969 744.003906 839.738281 754.824219 839.738281 768.179688 C 839.738281 781.53125 828.917969 792.355469 815.570312 792.355469 Z M 769.238281 959.574219 L 505.398438 959.574219 C 492.042969 959.574219 481.222656 948.757812 481.222656 935.40625 C 481.222656 922.050781 492.042969 911.230469 505.398438 911.230469 L 769.238281 911.230469 C 782.589844 911.230469 793.414062 922.050781 793.414062 935.40625 C 793.414062 948.757812 782.597656 959.574219 769.238281 959.574219 Z M 434.902344 768.179688 C 434.902344 754.824219 445.71875 744.003906 459.070312 744.003906 L 517.480469 744.003906 C 530.835938 744.003906 541.648438 754.824219 541.648438 768.179688 C 541.648438 781.53125 530.835938 792.355469 517.480469 792.355469 L 459.070312 792.355469 C 445.71875 792.355469 434.902344 781.53125 434.902344 768.179688 Z M 459.070312 655.355469 L 518.367188 655.355469 C 531.714844 655.355469 542.527344 666.175781 542.527344 679.53125 C 542.527344 692.882812 531.714844 703.710938 518.367188 703.710938 L 459.070312 703.710938 C 445.71875 703.710938 434.902344 692.882812 434.902344 679.53125 C 434.902344 666.175781 445.71875 655.355469 459.070312 655.355469 Z M 722.917969 679.53125 C 722.917969 692.882812 712.097656 703.710938 698.75 703.710938 L 578.914062 703.710938 C 565.5625 703.710938 554.738281 692.882812 554.738281 679.53125 C 554.738281 666.175781 565.5625 655.355469 578.914062 655.355469 L 698.75 655.355469 C 712.097656 655.355469 722.917969 666.175781 722.917969 679.53125 Z M 459.070312 562.675781 L 698.75 562.675781 C 712.097656 562.675781 722.917969 573.503906 722.917969 586.859375 C 722.917969 600.210938 712.097656 611.035156 698.75 611.035156 L 459.070312 611.035156 C 445.71875 611.035156 434.902344 600.210938 434.902344 586.859375 C 434.902344 573.503906 445.71875 562.675781 459.070312 562.675781 Z M 760.054688 476.050781 L 760.054688 346.738281 L 380.519531 346.738281 C 370.523438 346.738281 362.390625 354.875 362.390625 364.875 L 362.390625 1051.234375 C 362.390625 1061.234375 370.523438 1069.371094 380.519531 1069.371094 L 894.117188 1069.371094 C 904.117188 1069.371094 912.25 1061.234375 912.25 1051.234375 L 912.25 500.21875 L 784.230469 500.21875 C 770.882812 500.21875 760.054688 489.398438 760.054688 476.050781 " fill-opacity="1" fill-rule="nonzero"/><g clip-path="url(#19d92113aa)"><g clip-path="url(#2c11dd5fa5)"><g transform="matrix(1, 0, 0, 1, 862, 865)"><g clip-path="url(#a84fb774ec)"><g clip-path="url(#a785a018e4)"><g clip-path="url(#c052672051)"><path fill="#ffffff" d="M 0.0976562 0.914062 L 487.96875 0.914062 L 487.96875 485 L 0.0976562 485 Z M 0.0976562 0.914062 " fill-opacity="1" fill-rule="nonzero"/></g></g></g></g></g></g><g clip-path="url(#f59123c0dc)"><g clip-path="url(#953880a102)"><path stroke-linecap="butt" transform="matrix(0.75, 0, 0, 0.75, 862.102399, 865.914289)" fill="none" stroke-linejoin="miter" d="M 325.259329 -0.000302555 C 145.623897 -0.000302555 -0.00111546 144.484085 -0.00111546 322.718475 C -0.00111546 500.952866 145.623897 645.437253 325.259329 645.437253 C 504.89997 645.437253 650.524982 500.952866 650.524982 322.718475 C 650.524982 144.484085 504.89997 -0.000302555 325.259329 -0.000302555 Z M 325.259329 -0.000302555 " stroke="#000000" stroke-width="14" stroke-opacity="1" stroke-miterlimit="4"/></g></g><g clip-path="url(#fc105511f0)"><path fill="#000000" d="M 1028.070312 1169.292969 L 1028.070312 1271.480469 L 981.746094 1271.480469 L 981.746094 1230.199219 C 981.746094 1208.464844 992.511719 1189.800781 1011.3125 1178.898438 Z M 1028.070312 1169.292969 " fill-opacity="1" fill-rule="nonzero"/></g><g clip-path="url(#4abb29436e)"><path fill="#000000" d="M 1230.402344 1230.199219 L 1230.402344 1271.480469 L 1184.078125 1271.480469 L 1184.078125 1169.292969 L 1200.835938 1178.96875 C 1219.570312 1189.800781 1230.402344 1208.464844 1230.402344 1230.199219 Z M 1230.402344 1230.199219 " fill-opacity="1" fill-rule="nonzero"/></g><g clip-path="url(#88e02c0793)"><path fill="#000000" d="M 1172.632812 1162.6875 L 1172.632812 1271.480469 L 1039.515625 1271.480469 L 1039.515625 1162.6875 L 1067.992188 1146.199219 C 1069.765625 1145.179688 1070.855469 1143.339844 1070.855469 1141.296875 L 1070.855469 1128.894531 C 1080.9375 1135.4375 1093.199219 1138.980469 1106.074219 1138.980469 C 1118.949219 1138.980469 1131.210938 1135.4375 1141.296875 1128.894531 L 1141.296875 1141.296875 C 1141.296875 1143.339844 1142.386719 1145.246094 1144.15625 1146.199219 Z M 1172.632812 1162.6875 " fill-opacity="1" fill-rule="nonzero"/></g><path fill="#000000" d="M 1155.875 1048.507812 L 1155.875 1078.484375 C 1155.875 1112.273438 1130.054688 1127.671875 1106.074219 1127.671875 C 1082.09375 1127.671875 1056.273438 1112.273438 1056.273438 1078.484375 L 1056.273438 1048.507812 Z M 1155.875 1048.507812 " fill-opacity="1" fill-rule="nonzero"/><path fill="#000000" d="M 1033.863281 1014.445312 L 1178.289062 1014.445312 L 1178.289062 1037.132812 L 1033.863281 1037.132812 Z M 1033.863281 1014.445312 " fill-opacity="1" fill-rule="nonzero"/><g clip-path="url(#75adadfe71)"><path fill="#000000" d="M 1170.113281 1003.070312 L 1042.039062 1003.070312 C 1044.898438 970.300781 1072.558594 944.480469 1106.074219 944.480469 C 1139.59375 944.480469 1167.183594 970.300781 1170.113281 1003.070312 Z M 1170.113281 1003.070312 " fill-opacity="1" fill-rule="nonzero"/></g></svg>