<svg xmlns="http://www.w3.org/2000/svg" xmlns:xlink="http://www.w3.org/1999/xlink" width="2000" zoomAndPan="magnify" viewBox="0 0 1500 1499.999933" height="2000" preserveAspectRatio="xMidYMid meet" version="1.0"><defs><clipPath id="61f2cd62ae"><path d="M 296 333.289062 L 1205.957031 333.289062 L 1205.957031 1166 L 296 1166 Z M 296 333.289062 " clip-rule="nonzero"/></clipPath><clipPath id="e5a682cb2f"><path d="M 862.097656 865.914062 L 1350 865.914062 L 1350 1350 L 862.097656 1350 Z M 862.097656 865.914062 " clip-rule="nonzero"/></clipPath><clipPath id="f326bec493"><path d="M 1106.050781 865.914062 C 971.320312 865.914062 862.097656 974.28125 862.097656 1107.957031 C 862.097656 1241.632812 971.320312 1350 1106.050781 1350 C 1240.78125 1350 1350 1241.632812 1350 1107.957031 C 1350 974.28125 1240.78125 865.914062 1106.050781 865.914062 Z M 1106.050781 865.914062 " clip-rule="nonzero"/></clipPath><clipPath id="802e99a272"><path d="M 0.0976562 0.914062 L 488 0.914062 L 488 485 L 0.0976562 485 Z M 0.0976562 0.914062 " clip-rule="nonzero"/></clipPath><clipPath id="eda6ae8669"><path d="M 244.050781 0.914062 C 109.320312 0.914062 0.0976562 109.28125 0.0976562 242.957031 C 0.0976562 376.632812 109.320312 485 244.050781 485 C 378.78125 485 488 376.632812 488 242.957031 C 488 109.28125 378.78125 0.914062 244.050781 0.914062 Z M 244.050781 0.914062 " clip-rule="nonzero"/></clipPath><clipPath id="77a4cbbe33"><rect x="0" width="488" y="0" height="485"/></clipPath><clipPath id="57eef2f3dd"><path d="M 862.101562 865.914062 L 1350 865.914062 L 1350 1349.664062 L 862.101562 1349.664062 Z M 862.101562 865.914062 " clip-rule="nonzero"/></clipPath><clipPath id="8e3160d52d"><path d="M 1106.046875 865.914062 C 971.320312 865.914062 862.101562 974.277344 862.101562 1107.953125 C 862.101562 1241.628906 971.320312 1349.992188 1106.046875 1349.992188 C 1240.777344 1349.992188 1349.996094 1241.628906 1349.996094 1107.953125 C 1349.996094 974.277344 1240.777344 865.914062 1106.046875 865.914062 Z M 1106.046875 865.914062 " clip-rule="nonzero"/></clipPath><clipPath id="7077ccafc8"><path d="M 981 1169 L 1029 1169 L 1029 1271.480469 L 981 1271.480469 Z M 981 1169 " clip-rule="nonzero"/></clipPath><clipPath id="46ecd4ac02"><path d="M 1184 1169 L 1231 1169 L 1231 1271.480469 L 1184 1271.480469 Z M 1184 1169 " clip-rule="nonzero"/></clipPath><clipPath id="b5f65e7155"><path d="M 1039 1128 L 1173 1128 L 1173 1271.480469 L 1039 1271.480469 Z M 1039 1128 " clip-rule="nonzero"/></clipPath><clipPath id="62975d6826"><path d="M 1042 944.480469 L 1171 944.480469 L 1171 1004 L 1042 1004 Z M 1042 944.480469 " clip-rule="nonzero"/></clipPath></defs><g clip-path="url(#61f2cd62ae)"><path fill="#000000" d="M 1154.1875 817.722656 L 1200.171875 848.441406 C 1203.414062 850.609375 1205.375 854.230469 1205.375 858.089844 C 1205.375 861.960938 1203.414062 865.582031 1200.171875 867.75 L 757.410156 1163.542969 C 753.394531 1166.230469 748.097656 1166.230469 744.082031 1163.542969 L 301.320312 867.75 C 298.0625 865.582031 296.117188 861.960938 296.117188 858.089844 C 296.117188 854.230469 298.0625 850.609375 301.320312 848.441406 L 347.304688 817.722656 C 347.304688 817.722656 665.253906 1030.445312 730.765625 1073.894531 C 733.566406 1075.746094 737.074219 1077.421875 740.414062 1078.433594 C 743.605469 1079.398438 747.308594 1079.933594 750.738281 1079.933594 C 754.183594 1079.933594 757.871094 1079.398438 761.078125 1078.433594 C 764.417969 1077.421875 767.925781 1075.746094 770.726562 1073.894531 C 836.238281 1030.445312 1154.1875 817.722656 1154.1875 817.722656 Z M 1154.1875 708.75 L 1200.171875 739.457031 C 1203.414062 741.621094 1205.375 745.242188 1205.375 749.117188 C 1205.375 752.992188 1203.414062 756.613281 1200.171875 758.777344 L 757.410156 1054.574219 C 753.394531 1057.261719 748.097656 1057.261719 744.082031 1054.574219 L 301.320312 758.777344 C 298.0625 756.613281 296.117188 752.992188 296.117188 749.117188 C 296.117188 745.242188 298.0625 741.621094 301.320312 739.457031 L 347.304688 708.75 C 347.304688 708.75 665.253906 921.476562 730.765625 964.910156 C 733.566406 966.757812 737.074219 968.449219 740.414062 969.445312 C 743.605469 970.425781 747.308594 970.964844 750.738281 970.964844 C 754.183594 970.964844 757.871094 970.425781 761.078125 969.445312 C 764.417969 968.449219 767.925781 966.757812 770.726562 964.910156 C 836.238281 921.476562 1154.1875 708.75 1154.1875 708.75 Z M 540.316406 583.699219 L 371.339844 696.578125 L 301.320312 649.808594 C 298.0625 647.640625 296.117188 644.019531 296.117188 640.144531 C 296.117188 636.273438 298.0625 632.652344 301.320312 630.484375 L 455.84375 527.253906 Z M 476.953125 513.152344 L 645.125 400.796875 L 729.628906 457.242188 L 561.441406 569.582031 Z M 666.265625 386.675781 L 744.082031 334.691406 C 748.097656 332.019531 753.394531 332.019531 757.410156 334.691406 L 835.226562 386.675781 L 750.738281 443.125 Z M 687.375 513.671875 L 856.351562 400.796875 L 919.714844 443.125 L 750.738281 556 Z M 667.039062 640.144531 L 835.226562 527.792969 L 918.925781 583.699219 L 750.738281 696.054688 Z M 856.351562 513.671875 L 940.839844 457.242188 L 1024.539062 513.152344 L 940.050781 569.582031 Z M 876.6875 640.144531 L 1045.648438 527.253906 L 1109.011719 569.582031 L 940.050781 682.472656 Z M 1045.648438 640.144531 L 1130.136719 583.699219 L 1200.171875 630.484375 C 1203.414062 632.652344 1205.375 636.273438 1205.375 640.144531 C 1205.375 644.019531 1203.414062 647.640625 1200.171875 649.808594 L 1130.136719 696.578125 Z M 1109.011719 710.695312 L 940.839844 823.050781 L 856.351562 766.621094 L 1024.539062 654.25 Z M 919.714844 837.167969 L 757.410156 945.585938 C 753.394531 948.289062 748.097656 948.289062 744.082031 945.585938 L 666.265625 893.601562 L 835.226562 780.722656 Z M 729.628906 823.050781 L 645.125 879.496094 L 581.761719 837.167969 L 666.265625 780.722656 Z M 687.375 766.621094 L 855.5625 654.25 L 918.925781 696.578125 L 750.738281 808.945312 Z M 729.628906 710.160156 L 560.652344 823.050781 L 476.953125 767.140625 L 645.929688 654.25 Z M 729.628906 570.117188 L 561.441406 682.472656 L 498.0625 640.144531 L 666.265625 527.792969 Z M 540.316406 696.578125 L 455.84375 753.023438 L 392.480469 710.695312 L 476.953125 654.25 Z M 540.316406 696.578125 " fill-opacity="1" fill-rule="evenodd"/></g><g clip-path="url(#e5a682cb2f)"><g clip-path="url(#f326bec493)"><g transform="matrix(1, 0, 0, 1, 862, 865)"><g clip-path="url(#77a4cbbe33)"><g clip-path="url(#802e99a272)"><g clip-path="url(#eda6ae8669)"><path fill="#ffffff" d="M 0.0976562 0.914062 L 487.96875 0.914062 L 487.96875 485 L 0.0976562 485 Z M 0.0976562 0.914062 " fill-opacity="1" fill-rule="nonzero"/></g></g></g></g></g></g><g clip-path="url(#57eef2f3dd)"><g clip-path="url(#8e3160d52d)"><path stroke-linecap="butt" transform="matrix(0.75, 0, 0, 0.75, 862.102399, 865.914289)" fill="none" stroke-linejoin="miter" d="M 325.259329 -0.000302555 C 145.623897 -0.000302555 -0.00111546 144.484085 -0.00111546 322.718475 C -0.00111546 500.952866 145.623897 645.437253 325.259329 645.437253 C 504.89997 645.437253 650.524982 500.952866 650.524982 322.718475 C 650.524982 144.484085 504.89997 -0.000302555 325.259329 -0.000302555 Z M 325.259329 -0.000302555 " stroke="#000000" stroke-width="14" stroke-opacity="1" stroke-miterlimit="4"/></g></g><g clip-path="url(#7077ccafc8)"><path fill="#000000" d="M 1028.070312 1169.292969 L 1028.070312 1271.480469 L 981.746094 1271.480469 L 981.746094 1230.199219 C 981.746094 1208.464844 992.511719 1189.800781 1011.3125 1178.898438 Z M 1028.070312 1169.292969 " fill-opacity="1" fill-rule="nonzero"/></g><g clip-path="url(#46ecd4ac02)"><path fill="#000000" d="M 1230.402344 1230.199219 L 1230.402344 1271.480469 L 1184.078125 1271.480469 L 1184.078125 1169.292969 L 1200.835938 1178.96875 C 1219.570312 1189.800781 1230.402344 1208.464844 1230.402344 1230.199219 Z M 1230.402344 1230.199219 " fill-opacity="1" fill-rule="nonzero"/></g><g clip-path="url(#b5f65e7155)"><path fill="#000000" d="M 1172.632812 1162.6875 L 1172.632812 1271.480469 L 1039.515625 1271.480469 L 1039.515625 1162.6875 L 1067.992188 1146.199219 C 1069.765625 1145.179688 1070.855469 1143.339844 1070.855469 1141.296875 L 1070.855469 1128.894531 C 1080.9375 1135.4375 1093.199219 1138.980469 1106.074219 1138.980469 C 1118.949219 1138.980469 1131.210938 1135.4375 1141.296875 1128.894531 L 1141.296875 1141.296875 C 1141.296875 1143.339844 1142.386719 1145.246094 1144.15625 1146.199219 Z M 1172.632812 1162.6875 " fill-opacity="1" fill-rule="nonzero"/></g><path fill="#000000" d="M 1155.875 1048.507812 L 1155.875 1078.484375 C 1155.875 1112.273438 1130.054688 1127.671875 1106.074219 1127.671875 C 1082.09375 1127.671875 1056.273438 1112.273438 1056.273438 1078.484375 L 1056.273438 1048.507812 Z M 1155.875 1048.507812 " fill-opacity="1" fill-rule="nonzero"/><path fill="#000000" d="M 1033.863281 1014.445312 L 1178.289062 1014.445312 L 1178.289062 1037.132812 L 1033.863281 1037.132812 Z M 1033.863281 1014.445312 " fill-opacity="1" fill-rule="nonzero"/><g clip-path="url(#62975d6826)"><path fill="#000000" d="M 1170.113281 1003.070312 L 1042.039062 1003.070312 C 1044.898438 970.300781 1072.558594 944.480469 1106.074219 944.480469 C 1139.59375 944.480469 1167.183594 970.300781 1170.113281 1003.070312 Z M 1170.113281 1003.070312 " fill-opacity="1" fill-rule="nonzero"/></g></svg>