<svg xmlns="http://www.w3.org/2000/svg" xmlns:xlink="http://www.w3.org/1999/xlink" width="2000" zoomAndPan="magnify" viewBox="0 0 1500 1499.999933" height="2000" preserveAspectRatio="xMidYMid meet" version="1.0"><defs><clipPath id="894a74f145"><path d="M 168.726562 246.589844 L 1148.226562 246.589844 L 1148.226562 1226.089844 L 168.726562 1226.089844 Z M 168.726562 246.589844 " clip-rule="nonzero"/></clipPath><clipPath id="a5428ef896"><path d="M 862.097656 865.914062 L 1350 865.914062 L 1350 1350 L 862.097656 1350 Z M 862.097656 865.914062 " clip-rule="nonzero"/></clipPath><clipPath id="1cd0053829"><path d="M 1106.050781 865.914062 C 971.320312 865.914062 862.097656 974.28125 862.097656 1107.957031 C 862.097656 1241.632812 971.320312 1350 1106.050781 1350 C 1240.78125 1350 1350 1241.632812 1350 1107.957031 C 1350 974.28125 1240.78125 865.914062 1106.050781 865.914062 Z M 1106.050781 865.914062 " clip-rule="nonzero"/></clipPath><clipPath id="0eaae10c7a"><path d="M 0.0976562 0.914062 L 488 0.914062 L 488 485 L 0.0976562 485 Z M 0.0976562 0.914062 " clip-rule="nonzero"/></clipPath><clipPath id="6081f9def9"><path d="M 244.050781 0.914062 C 109.320312 0.914062 0.0976562 109.28125 0.0976562 242.957031 C 0.0976562 376.632812 109.320312 485 244.050781 485 C 378.78125 485 488 376.632812 488 242.957031 C 488 109.28125 378.78125 0.914062 244.050781 0.914062 Z M 244.050781 0.914062 " clip-rule="nonzero"/></clipPath><clipPath id="8f1784a8e2"><rect x="0" width="488" y="0" height="485"/></clipPath><clipPath id="d090f83000"><path d="M 862.101562 865.914062 L 1350 865.914062 L 1350 1349.664062 L 862.101562 1349.664062 Z M 862.101562 865.914062 " clip-rule="nonzero"/></clipPath><clipPath id="394e3a885c"><path d="M 1106.046875 865.914062 C 971.320312 865.914062 862.101562 974.277344 862.101562 1107.953125 C 862.101562 1241.628906 971.320312 1349.992188 1106.046875 1349.992188 C 1240.777344 1349.992188 1349.996094 1241.628906 1349.996094 1107.953125 C 1349.996094 974.277344 1240.777344 865.914062 1106.046875 865.914062 Z M 1106.046875 865.914062 " clip-rule="nonzero"/></clipPath><clipPath id="e21573821f"><path d="M 981 1169 L 1029 1169 L 1029 1271.480469 L 981 1271.480469 Z M 981 1169 " clip-rule="nonzero"/></clipPath><clipPath id="736a50cd27"><path d="M 1184 1169 L 1231 1169 L 1231 1271.480469 L 1184 1271.480469 Z M 1184 1169 " clip-rule="nonzero"/></clipPath><clipPath id="4c627cbff7"><path d="M 1039 1128 L 1173 1128 L 1173 1271.480469 L 1039 1271.480469 Z M 1039 1128 " clip-rule="nonzero"/></clipPath><clipPath id="d384510058"><path d="M 1042 944.480469 L 1171 944.480469 L 1171 1004 L 1042 1004 Z M 1042 944.480469 " clip-rule="nonzero"/></clipPath></defs><g clip-path="url(#894a74f145)"><path fill="#000000" d="M 1148.226562 1070.757812 L 1148.226562 1226.089844 L 1044.269531 1226.089844 L 1044.269531 1070.757812 C 1044.269531 1056.078125 1033.09375 1042.027344 979.921875 1019.078125 L 985.277344 1001.199219 C 987.5 993.828125 984.238281 985.90625 977.480469 982.238281 L 956.910156 971.019531 L 1019.652344 964.460938 L 1068.625 979.0625 C 1098.355469 987.882812 1148.226562 1011.519531 1148.226562 1070.757812 Z M 789.933594 1226.089844 L 824.023438 1226.089844 L 835.710938 1201.617188 L 778.203125 1201.617188 Z M 442.371094 1226.089844 L 476.457031 1226.089844 L 488.148438 1201.617188 L 430.660156 1201.617188 Z M 865.765625 450.101562 C 872.039062 452.121094 876.128906 458.1875 875.621094 464.765625 L 856.113281 720.734375 L 942.640625 720.734375 L 923.273438 464.929688 C 922.761719 458.371094 926.835938 452.300781 933.109375 450.289062 C 978.640625 435.605469 1009.226562 393.574219 1009.226562 345.699219 C 1009.226562 310.25 992.082031 277.402344 964.144531 256.980469 L 964.144531 357.941406 C 964.144531 362.175781 962.269531 366.207031 958.992188 368.914062 L 908.507812 410.863281 C 903.234375 415.261719 895.554688 415.261719 890.28125 410.863281 L 839.71875 368.914062 C 836.460938 366.207031 834.566406 362.175781 834.566406 357.941406 L 834.566406 256.753906 C 805.980469 277.054688 789.484375 308.964844 789.484375 345.699219 C 789.484375 391.988281 821.558594 435.910156 865.765625 450.101562 Z M 1095.585938 774.816406 C 1095.585938 762.945312 1085.953125 753.273438 1074.101562 753.273438 L 192.226562 753.273438 C 180.375 753.273438 170.742188 762.945312 170.742188 774.816406 C 170.742188 786.445312 180.578125 796.28125 192.226562 796.28125 L 1074.105469 796.28125 C 1085.953125 796.28125 1095.585938 786.648438 1095.585938 774.816406 Z M 920.789062 1102.792969 L 944.492188 1023.863281 L 944.511719 1023.78125 L 944.734375 1023.046875 L 950.292969 1004.496094 L 895.355469 974.5625 C 889.082031 971.164062 885.785156 964.074219 887.167969 957.089844 C 888.574219 950.085938 894.355469 944.832031 901.441406 944.078125 L 1018.308594 931.882812 L 1039.40625 828.84375 L 866.476562 828.84375 L 817.542969 857.109375 L 823.714844 887.289062 L 833.875 936.933594 C 835.691406 945.730469 830.007812 954.324219 821.210938 956.136719 C 820.109375 956.359375 819.011719 956.460938 817.910156 956.460938 C 810.355469 956.460938 803.574219 951.167969 801.984375 943.449219 L 795.511719 911.847656 L 765.859375 922.699219 C 764.007812 923.371094 762.136719 923.675781 760.28125 923.675781 C 753.621094 923.675781 747.390625 919.585938 744.988281 912.988281 C 741.894531 904.554688 746.253906 895.210938 754.683594 892.113281 L 788.914062 879.609375 L 783.292969 852.140625 C 781.886719 845.277344 785.023438 838.273438 791.09375 834.769531 L 801.355469 828.84375 L 226.964844 828.84375 L 288.871094 1131.160156 C 293.433594 1153.476562 312.53125 1169.054688 335.320312 1169.054688 L 729.453125 1169.054688 L 778.34375 1140.8125 L 761.992188 1060.925781 C 760.179688 1052.109375 765.859375 1043.515625 774.675781 1041.703125 C 783.472656 1039.890625 792.066406 1045.589844 793.878906 1054.386719 L 800.355469 1086.011719 L 830.023438 1075.199219 C 838.476562 1072.125 847.820312 1076.480469 850.894531 1084.933594 C 853.96875 1093.382812 849.613281 1102.707031 841.160156 1105.785156 L 806.953125 1118.246094 L 812.574219 1145.757812 C 813.976562 1152.621094 810.839844 1159.625 804.773438 1163.128906 L 794.511719 1169.050781 L 931.003906 1169.050781 C 936.929688 1169.050781 942.757812 1167.996094 948.273438 1165.894531 C 950.25 1165.140625 952.164062 1164.265625 953.996094 1163.269531 L 922.839844 1116.496094 C 920.15625 1112.464844 919.402344 1107.433594 920.789062 1102.792969 Z M 205.136719 482.625 L 168.726562 470.8125 L 168.726562 425.035156 L 205.136719 413.246094 C 209.699219 411.78125 213.199219 408.113281 214.484375 403.535156 C 217.78125 391.804688 222.566406 380.277344 228.695312 369.261719 C 230.996094 365.109375 231.101562 360.097656 228.941406 355.863281 L 211.53125 321.734375 L 243.929688 289.375 L 278.058594 306.746094 C 282.296875 308.902344 287.324219 308.800781 291.480469 306.480469 C 302.167969 300.496094 313.695312 295.730469 325.730469 292.265625 C 330.292969 290.964844 333.917969 287.484375 335.382812 282.960938 L 347.171875 246.589844 L 392.949219 246.589844 L 404.84375 283 C 406.308594 287.503906 409.910156 290.964844 414.453125 292.265625 C 426.488281 295.730469 438.011719 300.496094 448.703125 306.480469 C 452.859375 308.800781 457.886719 308.902344 462.125 306.746094 L 496.273438 289.375 L 528.652344 321.734375 L 511.242188 355.863281 C 509.105469 360.097656 509.183594 365.105469 511.503906 369.261719 C 517.535156 380.074219 522.320312 391.640625 525.71875 403.574219 C 527.023438 408.15625 530.523438 411.78125 535.046875 413.246094 L 571.457031 425.035156 L 571.457031 470.816406 L 535.046875 482.625 C 530.527344 484.070312 527.023438 487.695312 525.71875 492.277344 C 522.320312 504.234375 517.53125 515.78125 511.503906 526.59375 C 509.183594 530.746094 509.101562 535.757812 511.242188 539.992188 L 528.652344 574.140625 L 496.273438 606.476562 L 462.125 589.109375 C 457.886719 586.949219 452.859375 587.050781 448.703125 589.371094 C 438.035156 595.359375 426.507812 600.125 414.453125 603.585938 C 409.910156 604.890625 406.308594 608.351562 404.84375 612.851562 L 392.949219 649.261719 L 347.171875 649.261719 L 335.382812 612.890625 C 333.914062 608.371094 330.289062 604.890625 325.726562 603.585938 C 313.691406 600.125 302.167969 595.359375 291.476562 589.371094 C 287.324219 587.050781 282.292969 586.949219 278.058594 589.109375 L 243.929688 606.476562 L 211.53125 574.140625 L 228.941406 539.992188 C 231.097656 535.753906 230.996094 530.746094 228.695312 526.59375 C 222.566406 515.578125 217.78125 504.050781 214.484375 492.339844 C 213.199219 487.734375 209.699219 484.089844 205.136719 482.625 Z M 242.605469 447.921875 C 242.605469 518.199219 299.785156 575.378906 370.058594 575.378906 C 440.375 575.378906 497.574219 518.195312 497.574219 447.921875 C 497.574219 377.652344 440.375 320.46875 370.058594 320.46875 C 299.785156 320.46875 242.605469 377.652344 242.605469 447.921875 Z M 370.058594 546.871094 C 424.652344 546.871094 469.066406 502.480469 469.066406 447.925781 C 469.066406 393.371094 424.652344 349 370.058594 349 C 315.507812 349 271.132812 393.371094 271.132812 447.925781 C 271.136719 502.480469 315.507812 546.871094 370.058594 546.871094 Z M 370.058594 546.871094 " fill-opacity="1" fill-rule="nonzero"/></g><g clip-path="url(#a5428ef896)"><g clip-path="url(#1cd0053829)"><g transform="matrix(1, 0, 0, 1, 862, 865)"><g clip-path="url(#8f1784a8e2)"><g clip-path="url(#0eaae10c7a)"><g clip-path="url(#6081f9def9)"><path fill="#ffffff" d="M 0.0976562 0.914062 L 487.96875 0.914062 L 487.96875 485 L 0.0976562 485 Z M 0.0976562 0.914062 " fill-opacity="1" fill-rule="nonzero"/></g></g></g></g></g></g><g clip-path="url(#d090f83000)"><g clip-path="url(#394e3a885c)"><path stroke-linecap="butt" transform="matrix(0.75, 0, 0, 0.75, 862.102399, 865.914289)" fill="none" stroke-linejoin="miter" d="M 325.259329 -0.000302555 C 145.623897 -0.000302555 -0.00111546 144.484085 -0.00111546 322.718475 C -0.00111546 500.952866 145.623897 645.437253 325.259329 645.437253 C 504.89997 645.437253 650.524982 500.952866 650.524982 322.718475 C 650.524982 144.484085 504.89997 -0.000302555 325.259329 -0.000302555 Z M 325.259329 -0.000302555 " stroke="#000000" stroke-width="14" stroke-opacity="1" stroke-miterlimit="4"/></g></g><g clip-path="url(#e21573821f)"><path fill="#000000" d="M 1028.070312 1169.292969 L 1028.070312 1271.480469 L 981.746094 1271.480469 L 981.746094 1230.199219 C 981.746094 1208.464844 992.511719 1189.800781 1011.3125 1178.898438 Z M 1028.070312 1169.292969 " fill-opacity="1" fill-rule="nonzero"/></g><g clip-path="url(#736a50cd27)"><path fill="#000000" d="M 1230.402344 1230.199219 L 1230.402344 1271.480469 L 1184.078125 1271.480469 L 1184.078125 1169.292969 L 1200.835938 1178.96875 C 1219.570312 1189.800781 1230.402344 1208.464844 1230.402344 1230.199219 Z M 1230.402344 1230.199219 " fill-opacity="1" fill-rule="nonzero"/></g><g clip-path="url(#4c627cbff7)"><path fill="#000000" d="M 1172.632812 1162.6875 L 1172.632812 1271.480469 L 1039.515625 1271.480469 L 1039.515625 1162.6875 L 1067.992188 1146.199219 C 1069.765625 1145.179688 1070.855469 1143.339844 1070.855469 1141.296875 L 1070.855469 1128.894531 C 1080.9375 1135.4375 1093.199219 1138.980469 1106.074219 1138.980469 C 1118.949219 1138.980469 1131.210938 1135.4375 1141.296875 1128.894531 L 1141.296875 1141.296875 C 1141.296875 1143.339844 1142.386719 1145.246094 1144.15625 1146.199219 Z M 1172.632812 1162.6875 " fill-opacity="1" fill-rule="nonzero"/></g><path fill="#000000" d="M 1155.875 1048.507812 L 1155.875 1078.484375 C 1155.875 1112.273438 1130.054688 1127.671875 1106.074219 1127.671875 C 1082.09375 1127.671875 1056.273438 1112.273438 1056.273438 1078.484375 L 1056.273438 1048.507812 Z M 1155.875 1048.507812 " fill-opacity="1" fill-rule="nonzero"/><path fill="#000000" d="M 1033.863281 1014.445312 L 1178.289062 1014.445312 L 1178.289062 1037.132812 L 1033.863281 1037.132812 Z M 1033.863281 1014.445312 " fill-opacity="1" fill-rule="nonzero"/><g clip-path="url(#d384510058)"><path fill="#000000" d="M 1170.113281 1003.070312 L 1042.039062 1003.070312 C 1044.898438 970.300781 1072.558594 944.480469 1106.074219 944.480469 C 1139.59375 944.480469 1167.183594 970.300781 1170.113281 1003.070312 Z M 1170.113281 1003.070312 " fill-opacity="1" fill-rule="nonzero"/></g></svg>